# xmcd
#
# Track frame offsets: 
#        183
#        16058
#        29425
#        44688
#        60740
#        74045
#        80173
#        93828
#        109813
#        123945
#        139625
#        155448
#
# Disc length: 2300 seconds
#
# Revision: 2
# Processed by: cddbd v1.5.2PL0 Copyright (c) Steve Scherf et al.
# Submitted via: ExactAudioCopy v0.95a5
#
DISCID=a308fa0c
DTITLE=Mac McAnally - Simple Life
DYEAR=1990
DGENRE=Country
TTITLE0=Back Where I Come From
TTITLE1=Simple Life
TTITLE2=Same Old Heart
TTITLE3=She's All I've Got Going
TTITLE4=Down The Road
TTITLE5=Back Where I Come From (Reprise)
TTITLE6=The Invisible Man
TTITLE7=Mobile Home
TTITLE8=Just That Way
TTITLE9=She's Going Out Of My Mind
TTITLE10=Company Time
TTITLE11=Southbound
EXTD=
EXTT0=
EXTT1=
EXTT2=
EXTT3=
EXTT4=
EXTT5=
EXTT6=
EXTT7=
EXTT8=
EXTT9=
EXTT10=
EXTT11=
PLAYORDER=
